{"title":"Megamind.2010.DVDRip.XviD.AC3-Rx","uid":6164716,"size":1517349796,"categoryP":"video","categoryS":"movies","magnet":"?xt=urn:btih:89d656d43cefcb16442c5db1ac83d3c6410686cb&amp;dn=Megamind.2010.DVDRip.XviD.AC3-Rx&amp;tr=udp%3A%2F%2Ftracker.openbittorrent.com%3A80&amp;tr=udp%3A%2F%2Fopen.demonii.com%3A1337&amp;tr=udp%3A%2F%2Ftracker.coppersurfer.tk%3A6969&amp;tr=udp%3A%2F%2Fexodus.desync.com%3A6969","seeders":0,"leechers":0,"uploader":"CODYBOSS1969","files":5,"time":1297346112,"description":"General\nComplete name                    : Megamind.2010.DVDRip.XviD.AC3-Rx\\rx-megamind-dvdrip.avi\nFormat                           : AVI\nFormat/Info                      : Audio Video Interleave\nFile size                        : 1.39 GiB\nDuration                         : 1h 35mn\nOverall bit rate                 : 2 081 Kbps\nWriting application              : VirtualDubMod 1.5.10.2 (build 2540/release)\nWriting library                  : VirtualDubMod build 2540/release\n\nVideo\nID                               : 0\nFormat                           : MPEG-4 Visual\nFormat profile                   : Advanced Simple@L5\nFormat settings, BVOP            : Yes\nFormat settings, QPel            : No\nFormat settings, GMC             : No warppoints\nFormat settings, Matrix          : Default (MPEG)\nCodec ID                         : XVID\nCodec ID/Hint                    : XviD\nDuration                         : 1h 35mn\nBit rate                         : 1 624 Kbps\nWidth                            : 720 pixels\nHeight                           : 304 pixels\nDisplay aspect ratio             : 2.35:1\nFrame rate                       : 23.976 fps\nColor space                      : YUV\nChroma subsampling               : 4:2:0\nBit depth                        : 8 bits\nScan type                        : Progressive\nCompression mode                 : Lossy\nBits/(Pixel*Frame)               : 0.309\nStream size                      : 1.08 GiB (78%)\nWriting library                  : XviD 1.2.1 (UTC 2008-12-04)\n\nAudio\nID                               : 1\nFormat                           : AC-3\nFormat/Info                      : Audio Coding 3\nMode extension                   : CM (complete main)\nCodec ID                         : 2000\nDuration                         : 1h 35mn\nBit rate mode                    : Constant\nBit rate                         : 448 Kbps\nChannel(s)                       : 6 channels\nChannel positions                : Front: L C R, Side: L R, LFE\nSampling rate                    : 48.0 KHz\nBit depth                        : 16 bits\nCompression mode                 : Lossy\nVideo delay                      : 600ms\nStream size                      : 306 MiB (22%)\nAlignment                        : Split accross interleaves\nInterleave, duration             : 42 ms (1.00 video frame)\nInterleave, preload duration     : 500 ms\n\n\n\n\nIMDB link:                         &lt;a href=&quot; http://www.imdb.com/title/tt1001526/&quot; rel=&quot;nofollow&quot; target=&quot;_NEW&quot;&gt; http://www.imdb.com/title/tt1001526/&lt;/a&gt;\n\n\n\nSubtitles included                : Romanian\n\n\n\nStoryline:            The supervillain Megamind finally conquers his nemesis, the hero Metro Man... but finds his life pointless without a hero to fight.\n","torrent":{"xt":"urn:btih:89d656d43cefcb16442c5db1ac83d3c6410686cb","amp;dn":"Megamind.2010.DVDRip.XviD.AC3-Rx","amp;tr":["udp%3A%2F%2Ftracker.openbittorrent.com%3A80","udp%3A%2F%2Fopen.demonii.com%3A1337","udp%3A%2F%2Ftracker.coppersurfer.tk%3A6969","udp%3A%2F%2Fexodus.desync.com%3A6969"],"infoHash":"89d656d43cefcb16442c5db1ac83d3c6410686cb","infoHashBuffer":{"type":"Buffer","data":[137,214,86,212,60,239,203,22,68,44,93,177,172,131,211,198,65,6,134,203]},"announce":[],"urlList":[]}}